# xmcd
#
# Track frame offsets:
#	183
#	18413
#	38098
#	52248
#	72553
#	84950
#	103728
#	114220
#	128130
#	144760
#	159195
#	177603
#
# Disc length: 2550 seconds
#
# Revision: 0
# Processed by: cddbd v1.5.2PL0 Copyright (c) Steve Scherf et al.
# Submitted via: dBpowerAMP V4.0
#
DISCID=9b09f40c
DTITLE=Various Artist - Musicas Inesqueciveis
DYEAR=1900
DGENRE=Blues
TTITLE0=John Barry - Somewhere in Time
TTITLE1=D'Andrea Bongusto - Tu Sei Cosi
TTITLE2=S. Wayne - A. Silver - My Love For You
TTITLE3=Hammilton - Mark Lee - If You Could REMEMBER
TTITLE4=Paul Bryan - Jim Saloman - Don't Say Goodbye
TTITLE5=Paul Denver - Rain and Memories
TTITLE6=Robert Maxwell - EBB TIDE
TTITLE7=Jimmy Krodes - At the end of the Raibow
TTITLE8=R Vecchioni - Tornerai Tornero
TTITLE9=Sid Lippman - Too Young
TTITLE10=Adap. da Protofonia de O Guarani - Pigeon Without a Dove
TTITLE11=Anthony Gadya - Air For a Great Love
EXTD=
EXTT0=
EXTT1=
EXTT2=
EXTT3=
EXTT4=
EXTT5=
EXTT6=
EXTT7=
EXTT8=
EXTT9=
EXTT10=
EXTT11=
PLAYORDER=
